<?xml version="1.0" encoding="UTF-8"?>
<!DOCTYPE svg PUBLIC "-//W3C//DTD SVG 1.1//EN" "http://www.w3.org/Graphics/SVG/1.1/DTD/svg11.dtd">
<!-- Creator: CorelDRAW X7 -->
<svg xmlns="http://www.w3.org/2000/svg" xml:space="preserve" width="22.4052mm" height="22.4052mm" version="1.1" style="shape-rendering:geometricPrecision; text-rendering:geometricPrecision; image-rendering:optimizeQuality; fill-rule:evenodd; clip-rule:evenodd"
viewBox="0 0 620 620"
 xmlns:xlink="http://www.w3.org/1999/xlink">
 <defs>
  <style type="text/css">
   <![CDATA[
    .fil0 {fill:none}
    .fil1 {fill:#0E9AD7}
    .fil2 {fill:#194680}
    .fil3 {fill:#0E9AD7;fill-rule:nonzero}
    .fil4 {fill:#194680;fill-rule:nonzero}
   ]]>
  </style>
 </defs>
 <g id="Warstwa_x0020_1">
  <metadata id="CorelCorpID_0Corel-Layer"/>
  <rect class="fil0" width="620" height="620"/>
  <g id="_943168000">
   <path class="fil1" d="M244 61c22,0 43,5 62,13 -62,22 -107,81 -107,150 0,67 41,123 98,148 -17,5 -35,9 -53,9 -88,0 -160,-72 -160,-160 0,-88 72,-160 160,-160z"/>
   <path class="fil2" d="M379 65c88,0 160,71 160,159 0,88 -72,160 -160,160 -88,0 -160,-72 -160,-160 0,-88 72,-159 160,-159zm-71 261l0 -205 70 0c16,0 28,1 37,3 12,3 22,8 30,15 11,9 19,20 24,35 5,14 8,30 8,48 0,16 -2,30 -5,42 -4,12 -9,21 -14,29 -6,8 -12,14 -19,19 -7,4 -15,8 -24,10 -10,2 -21,4 -33,4l-74 0zm27 -24l44 0c13,0 24,-2 31,-4 8,-3 14,-6 19,-11 6,-6 11,-15 15,-26 3,-11 5,-24 5,-39 0,-22 -3,-38 -10,-50 -7,-11 -16,-19 -26,-23 -7,-3 -19,-4 -35,-4l-43 0 0 157z"/>
  </g>
  <g id="_943168128">
   <path class="fil3" d="M33 537c0,0 1,0 1,0 0,0 1,0 1,0 1,0 1,0 1,0 1,0 1,0 2,0 1,0 1,0 2,0 5,0 10,0 16,0 13,0 21,-4 25,-13 1,-3 2,-8 2,-15l0 -4c0,-7 -1,-13 -4,-17 -4,-7 -11,-11 -23,-11 0,0 0,0 -1,0 0,0 -1,0 -1,0 -1,0 -2,0 -3,0 -4,0 -7,0 -8,0 -2,0 -6,0 -10,0l0 60zm15 -12l0 -36c3,0 5,0 6,0 6,0 9,1 11,3 2,1 3,5 3,11l0 9c0,3 0,5 -1,6 0,2 -1,3 -2,4 -1,1 -2,2 -4,3 -1,0 -4,0 -6,0l-2 0c-2,0 -4,0 -5,0zm40 -5c0,3 1,6 2,8 2,6 8,9 18,9 3,0 6,0 9,0 5,-1 7,-1 7,-1l0 -11 0 0c-5,1 -10,2 -14,2l-2 0c-1,0 -3,-1 -4,-1 -2,-1 -3,-2 -3,-5l0 -1 24 0 0 -8c0,-4 -1,-7 -2,-10 -2,-5 -8,-8 -17,-8 -3,0 -6,0 -9,1 -6,3 -9,8 -9,15l0 10zm13 -9l0 -2c0,-1 1,-3 1,-3 1,-1 3,-1 4,-1 2,0 3,0 4,0 1,1 2,3 2,6l0 0 -11 0zm29 -6l7 0 0 32 13 0 0 -32 8 0 2 -10 -10 0 0 -5c0,-2 0,-3 0,-4 1,-1 2,-1 4,-1l5 0 0 -11 -9 0c-3,0 -5,1 -7,1 -4,2 -6,6 -6,13l0 7 -7 0 0 10zm33 20c0,3 1,5 3,8 2,3 5,4 9,4l1 0c4,0 8,-1 12,-3 0,1 0,2 0,2 0,0 0,0 0,0 0,0 0,0 0,0 0,0 0,0 0,1 0,0 0,0 0,0l11 0 0 -26c0,-1 0,-2 0,-3 0,-1 0,-2 0,-3 0,-1 0,-2 -1,-2 0,-1 0,-2 -1,-2 0,-1 0,-2 -1,-3 -1,0 -1,-1 -2,-1 -1,-1 -2,-1 -3,-1 -1,-1 -3,-1 -4,-1 -2,0 -3,0 -5,0l-13 0 -1 10 12 0c2,0 4,1 5,2 1,0 1,2 1,5l0 1 -6 0c-6,0 -10,0 -11,1 -4,2 -6,6 -6,11l0 0zm13 0c0,-1 1,-2 1,-3 1,0 2,0 5,0l4 0 0 4c-3,2 -5,2 -6,2 -2,0 -4,-1 -4,-3zm29 -6c0,3 0,6 0,8 0,2 1,3 1,5 2,2 3,3 5,4 2,1 4,1 7,1 1,0 1,0 1,0 2,0 3,0 5,0 2,-1 4,-1 6,-2 1,-1 1,-1 1,-1 0,1 0,1 1,2l0 1 11 0 0 -42 -13 0 0 30c-2,1 -4,1 -6,1 0,0 0,0 -1,0 0,0 -1,0 -1,0 -3,0 -4,-2 -4,-5l0 -26 -13 0 0 24zm44 1c0,1 0,1 0,2 0,2 0,3 1,5 3,7 9,10 18,10 1,0 2,0 3,0l0 -11c-3,0 -5,0 -6,0 -2,-1 -3,-3 -3,-6l0 -45 -13 2 0 43zm27 -15l6 0 0 9 0 2c0,1 0,3 0,4l0 2 0 0c0,2 0,4 1,6 0,1 1,3 1,4 1,1 2,2 3,2 1,1 2,2 3,2 0,0 1,1 3,1 2,0 4,0 7,0l2 0 3 0 0 -9c0,0 -1,-1 -2,-1 -2,0 -4,0 -5,-1 -1,0 -1,0 -1,0 -1,-1 -2,-2 -2,-3 0,0 0,-1 0,-3l0 -15 9 0 1 -10 -10 0 0 -13 -13 2 0 11 -6 0 0 10z"/>
   <path class="fil4" d="M397 512c0,1 -1,3 -4,6 0,0 -1,1 -2,2 0,1 -1,1 -2,2 -1,1 -2,1 -3,2 -1,1 -1,2 -2,2 -3,2 -5,4 -8,6 -3,1 -5,3 -8,4 -3,1 -6,2 -9,3 -2,1 -5,1 -8,1 -2,0 -5,0 -7,-1 -2,-1 -4,-2 -5,-3 -1,-2 -2,-4 -3,-6 -1,-2 -1,-4 -1,-7 0,-2 0,-4 1,-7 0,-2 1,-5 2,-7 1,-2 2,-4 3,-7 1,-2 3,-4 4,-6 1,-1 2,-2 3,-3 1,-1 3,-2 4,-3 1,-1 2,-2 4,-3 1,-1 2,-2 4,-3 0,0 1,-1 3,-2 1,0 2,-1 4,-1 1,-1 2,-1 4,-2 1,0 2,0 3,0 2,0 3,0 4,0 1,0 2,1 2,1 1,0 1,1 2,1 0,1 0,2 1,2 0,1 1,1 1,2 0,1 0,1 0,2 0,0 0,1 0,2 -1,1 -1,1 -2,2 0,1 -1,2 -1,3 -1,1 -1,1 -2,2 -1,1 -2,1 -3,1 -1,0 -2,0 -3,0 0,-1 0,-2 0,-3 0,0 0,-1 0,-1 1,-1 1,-2 2,-3 1,-1 2,-2 2,-2 1,-1 1,-2 1,-2 0,0 -1,-1 -2,-1 0,0 -1,0 -2,0 -1,0 -2,0 -3,1 -2,0 -3,1 -4,1 -2,1 -3,2 -5,2 -1,1 -2,2 -3,3 -3,2 -5,4 -7,7 -3,2 -5,5 -6,8 -1,2 -1,3 -2,4 0,2 -1,3 -1,5 -1,1 -1,2 -1,4 0,1 0,3 0,4 0,1 0,3 0,4 1,1 1,3 2,4 1,0 2,1 3,2 1,0 3,1 5,1 2,0 4,-1 6,-1 2,-1 5,-2 7,-3 2,-1 4,-2 6,-3 2,-1 4,-2 6,-4 2,-1 4,-3 6,-4 2,-1 3,-3 5,-4 0,0 1,-1 2,-1 0,-1 1,-2 2,-2 0,-1 1,-1 1,-2 1,-1 2,-1 2,-2 1,1 2,2 2,3zm52 -8c0,1 0,1 0,2 0,0 0,1 -1,1 0,0 0,1 -1,1 0,1 0,1 -1,1 -1,1 -2,1 -4,2 -1,0 -3,0 -6,0 -2,0 -4,0 -6,0 -2,-1 -4,-2 -6,-3 1,1 1,2 2,3 0,1 0,2 0,3 0,2 -1,4 -2,6 -1,3 -2,5 -4,7 -1,2 -3,3 -5,5 -1,0 -2,1 -3,2 -1,0 -3,1 -4,1 -1,0 -3,1 -4,1 -1,0 -3,0 -4,0 -1,0 -2,0 -3,-1 -1,-1 -2,-1 -3,-2 -1,-1 -1,-2 -2,-3 0,-1 0,-2 0,-3 0,-2 0,-4 1,-6 0,-2 1,-4 2,-6 1,-2 2,-3 3,-5 1,-2 3,-4 4,-5 1,-1 2,-2 3,-3 1,-1 2,-2 3,-3 1,0 2,-1 3,-1 1,-1 2,-1 3,-1 1,0 2,0 2,0 1,1 2,1 2,1 1,1 1,1 2,2 0,1 1,1 2,2 0,0 1,1 2,1 1,1 2,1 3,1 2,1 3,1 5,2 1,0 3,0 4,0 1,0 3,0 4,0 1,0 2,0 3,0 1,-1 2,-1 3,-1 1,-1 2,-1 3,-2 0,1 0,1 0,1zm-29 10c0,-1 0,-2 0,-3 0,-1 0,-2 -1,-2 0,-1 0,-2 -1,-2 0,-1 -1,-1 -2,-1 -1,0 -2,-1 -3,-1 0,-1 -1,-1 -1,-1 -1,0 -1,0 -1,0 -1,0 -1,0 -2,1 0,0 0,1 -1,1 0,0 -1,1 -1,1 -1,1 -1,2 -2,3 -1,1 -1,2 -2,3 -1,0 -1,1 -2,2 0,1 -1,2 -1,3 -1,1 -1,1 -1,2 0,1 0,1 0,2 -1,1 -1,1 -1,2 0,1 0,1 0,2 0,0 0,1 1,1 0,1 0,1 0,1 1,1 1,1 2,2 0,0 1,0 1,0 1,0 3,0 4,0 0,0 1,0 2,-1 1,0 2,0 3,-1 0,-1 1,-1 2,-2 1,0 1,-1 2,-1 0,-1 1,-1 1,-2 1,-1 1,-1 2,-2 0,0 1,-1 1,-2 0,0 0,0 1,-1 0,-1 0,-1 0,-2 0,0 0,-1 0,-1 0,-1 0,-1 0,-1zm58 -8c0,0 0,0 0,0 0,1 0,1 0,1 0,0 0,1 0,1 0,0 -1,0 -1,0 0,0 0,0 -1,0 0,0 0,0 -1,0 0,0 -1,0 -1,0 0,0 0,0 -1,0 -5,0 -9,2 -12,6 -3,3 -6,7 -8,13 -1,1 -1,2 -2,3 0,1 -1,2 -1,4 0,0 0,1 0,2 0,0 -1,1 -1,1 0,1 0,1 0,1 -1,0 -1,0 -2,1 0,0 -1,0 -1,0 -1,0 -1,0 -1,0 -2,0 -3,-2 -3,-5 0,-1 0,-2 0,-3 0,-1 0,-2 0,-3 0,0 0,-1 0,-2 0,-1 0,-2 0,-3 1,-1 1,-3 1,-5 0,-2 0,-3 1,-5 0,-2 0,-4 0,-5 1,-2 1,-3 1,-4 0,-1 1,-2 1,-3 1,-1 2,-1 3,-1 0,0 0,0 0,0 1,0 1,1 1,1 0,0 1,0 1,1 0,0 0,0 0,0 0,1 0,2 0,2 0,1 0,2 0,3 0,1 -1,1 -1,2 0,1 0,2 0,3 -1,1 -1,2 -1,3 0,1 0,2 -1,3 0,1 0,2 0,4 0,1 0,2 0,4 0,-1 0,-2 1,-3 0,0 0,-1 1,-2 0,0 0,-1 0,-1 0,0 1,-1 1,-1 0,-1 1,-1 1,-2 0,0 1,-1 1,-2 2,-3 4,-5 6,-7 2,-2 4,-3 6,-4 2,-1 4,-2 5,-2 1,0 2,0 3,0 1,0 1,1 2,1 1,0 2,0 2,1 1,0 1,1 1,2zm65 1c0,1 -1,2 -1,3 0,0 -1,1 -1,1 0,0 -1,1 -1,1 0,0 -1,0 -1,1 0,0 0,0 -1,0 -1,1 -2,2 -3,3 -1,0 -3,1 -4,2 -2,1 -4,2 -6,3 -1,1 -3,2 -5,3 -2,1 -4,2 -6,3 -1,1 -3,2 -4,2 -1,1 -2,1 -3,2 -1,0 -2,1 -3,1 -1,1 -2,1 -3,2 -1,0 -2,0 -3,0 0,0 -1,0 -1,0 -1,0 -1,0 -2,-1 0,0 -1,0 -1,-1 0,0 0,-1 0,-2 0,0 0,0 0,-1 0,0 1,0 1,-1 0,0 1,0 1,0 1,0 1,-1 2,-1 0,0 1,0 1,0 1,0 2,-1 2,-1 1,0 2,0 2,0 1,-1 1,-1 2,-1 1,-1 1,-1 2,-2 1,0 1,-1 2,-2 1,-1 1,-2 2,-2 0,-1 1,-2 1,-3 1,-1 1,-1 1,-2 1,0 1,-1 1,-2 0,-1 0,-1 1,-2 0,0 0,-1 0,-1 0,-2 -1,-3 -1,-5 -1,-1 -2,-1 -3,-1 -1,0 -2,0 -3,1 -1,0 -2,1 -3,1 -1,1 -2,2 -2,2 -1,1 -2,2 -2,2 -2,2 -3,3 -4,4 -1,2 -2,3 -3,5 -1,2 -1,3 -2,5 -1,1 -2,3 -3,4 0,1 0,3 0,4 -1,2 -1,3 -1,5 0,4 -1,7 -1,10 0,2 0,5 -1,7 0,1 0,2 -1,2 0,1 -1,1 -2,1 0,0 -1,0 -1,0 -1,0 -1,0 -1,-1 -1,0 -1,0 -1,0 0,-1 -1,-1 -1,-2 0,0 1,-1 1,-3 0,-1 0,-2 0,-3 0,-2 0,-3 1,-4 0,-1 0,-2 0,-2 0,-3 0,-6 1,-9 0,-3 0,-6 0,-10 1,-1 1,-2 1,-3 0,-1 0,-3 0,-4 0,-1 0,-2 0,-4 0,-1 0,-1 0,-2 0,-5 2,-7 4,-7 0,0 1,0 1,0 0,0 1,1 1,1 0,0 1,1 1,1 0,0 0,1 0,1 0,1 0,2 0,3 0,1 -1,2 -1,3 0,2 0,3 0,4 -1,1 -1,2 -1,3 0,0 0,1 1,1 1,-3 3,-6 5,-9 2,-2 3,-4 5,-6 1,-1 2,-2 3,-3 1,-1 3,-1 4,-2 1,-1 2,-1 3,-2 1,0 2,0 4,0 1,0 2,0 3,1 1,0 1,1 2,2 1,1 2,2 2,3 1,1 1,3 1,5 0,1 0,2 -1,3 0,2 -1,3 -1,4 -1,2 -2,3 -3,4 -1,1 -2,2 -3,3 2,-1 4,-2 7,-3 2,-1 4,-2 6,-4 3,-1 5,-2 7,-4 2,-1 4,-3 6,-4 1,0 1,-1 2,-1 0,0 0,-1 1,-1 0,0 0,1 1,1 0,0 0,1 0,1zm46 -3c0,1 0,1 0,2 0,0 0,1 -1,1 0,0 0,1 -1,1 0,1 0,1 -1,1 -1,1 -2,1 -4,2 -1,0 -3,0 -6,0 -2,0 -4,0 -6,0 -2,-1 -4,-2 -6,-3 1,1 1,2 2,3 0,1 0,2 0,3 0,2 -1,4 -2,6 -1,3 -2,5 -4,7 -1,2 -3,3 -5,5 -1,0 -2,1 -3,2 -1,0 -2,1 -4,1 -1,0 -2,1 -4,1 -1,0 -3,0 -4,0 -1,0 -2,0 -3,-1 -1,-1 -2,-1 -3,-2 0,-1 -1,-2 -2,-3 0,-1 0,-2 0,-3 0,-2 0,-4 1,-6 0,-2 1,-4 2,-6 1,-2 2,-3 3,-5 1,-2 3,-4 4,-5 1,-1 2,-2 3,-3 1,-1 2,-2 3,-3 1,0 2,-1 3,-1 1,-1 2,-1 3,-1 1,0 2,0 3,0 0,1 1,1 1,1 1,1 1,1 2,2 0,1 1,1 2,2 0,0 1,1 2,1 1,1 2,1 3,1 2,1 3,1 5,2 2,0 3,0 4,0 2,0 3,0 4,0 1,0 2,0 3,0 1,-1 2,-1 3,-1 1,-1 2,-1 3,-2 0,1 0,1 0,1zm-29 10c0,-1 0,-2 0,-3 0,-1 0,-2 0,-2 -1,-1 -1,-2 -2,-2 0,-1 -1,-1 -2,-1 -1,0 -2,-1 -3,-1 0,-1 -1,-1 -1,-1 -1,0 -1,0 -1,0 -1,0 -1,0 -2,1 0,0 0,1 -1,1 0,0 0,1 -1,1 -1,1 -1,2 -2,3 -1,1 -1,2 -2,3 0,0 -1,1 -2,2 0,1 -1,2 -1,3 0,1 -1,1 -1,2 0,1 0,1 0,2 0,1 -1,1 -1,2 0,1 0,1 0,2 0,0 0,1 1,1 0,1 0,1 1,1 0,1 0,1 1,2 0,0 1,0 1,0 2,0 3,0 4,0 1,0 1,0 2,-1 1,0 2,0 3,-1 0,-1 1,-1 2,-2 1,0 1,-1 2,-1 0,-1 1,-1 1,-2 1,-1 1,-1 2,-2 0,0 1,-1 1,-2 0,0 1,0 1,-1 0,-1 0,-1 0,-2 0,0 0,-1 0,-1 0,-1 0,-1 0,-1z"/>
  </g>
 </g>
</svg>
