<?xml version="1.0" encoding="UTF-8"?>
<!DOCTYPE svg PUBLIC "-//W3C//DTD SVG 1.1//EN" "http://www.w3.org/Graphics/SVG/1.1/DTD/svg11.dtd">
<!-- Creator: CorelDRAW X7 -->
<svg xmlns="http://www.w3.org/2000/svg" xml:space="preserve" width="67.2156mm" height="22.4052mm" version="1.1" style="shape-rendering:geometricPrecision; text-rendering:geometricPrecision; image-rendering:optimizeQuality; fill-rule:evenodd; clip-rule:evenodd"
viewBox="0 0 5576 1859"
 xmlns:xlink="http://www.w3.org/1999/xlink">
 <defs>
  <style type="text/css">
   <![CDATA[
    .fil0 {fill:none}
    .fil1 {fill:#0E9AD7}
    .fil2 {fill:#194680}
    .fil3 {fill:#0E9AD7;fill-rule:nonzero}
    .fil4 {fill:#194680;fill-rule:nonzero}
   ]]>
  </style>
 </defs>
 <g id="Warstwa_x0020_1">
  <metadata id="CorelCorpID_0Corel-Layer"/>
  <rect class="fil0" width="5576" height="1859"/>
  <g id="_943165248">
   <path class="fil1" d="M792 279c90,0 176,18 254,51 -255,90 -438,334 -438,620 0,274 166,508 403,608 -68,24 -142,37 -219,37 -364,0 -659,-295 -659,-658 0,-364 295,-658 659,-658z"/>
   <path class="fil2" d="M1348 292c364,0 659,295 659,658 0,364 -295,659 -659,659 -363,0 -658,-295 -658,-659 0,-363 295,-658 658,-658zm-292 1076l0 -843 291 0c65,0 115,4 150,12 48,11 89,31 123,60 45,38 78,86 100,145 22,58 33,125 33,200 0,64 -7,121 -22,170 -15,50 -34,91 -58,123 -23,33 -49,58 -76,77 -28,18 -62,32 -101,42 -39,10 -85,14 -136,14l-304 0zm112 -99l180 0c55,0 99,-5 131,-15 31,-11 56,-25 75,-44 26,-26 47,-62 62,-107 14,-45 22,-99 22,-163 0,-88 -15,-156 -43,-203 -29,-48 -64,-80 -106,-96 -30,-11 -78,-17 -144,-17l-177 0 0 645z"/>
  </g>
  <g id="_943167168">
   <path class="fil3" d="M2169 1032c1,0 3,0 5,0 1,0 4,0 6,0 3,0 5,0 7,0 3,0 6,0 10,0 4,0 7,0 9,0 27,1 57,1 90,1 72,0 117,-25 137,-75 7,-17 11,-44 11,-81l0 -22c0,-40 -7,-72 -19,-95 -21,-40 -64,-61 -130,-61 0,0 -1,0 -3,1 -2,0 -5,0 -10,0 -4,0 -8,0 -13,0 -23,0 -37,0 -43,0 -15,1 -34,1 -57,1l0 331zm83 -66l0 -199c13,-1 25,-2 35,-2 30,0 49,5 58,15 11,10 16,32 16,65l0 51c0,14 -1,25 -3,33 -2,9 -6,16 -11,22 -5,6 -12,10 -22,13 -9,2 -21,4 -36,4l-8 0c-12,0 -22,-1 -29,-2zm222 -27c0,15 2,30 8,43 15,35 48,53 100,53 20,0 37,-1 53,-3 24,-4 37,-6 37,-7l0 -59 -1 0c-26,6 -53,8 -79,8l-6 0c-8,0 -17,-1 -26,-3 -9,-3 -14,-12 -14,-28l0 -7 132 0 0 -42c0,-23 -3,-41 -9,-53 -14,-32 -46,-48 -94,-48 -18,0 -34,2 -50,7 -34,14 -51,41 -51,83l0 56zm72 -50l0 -10c0,-9 2,-16 7,-20 5,-5 12,-7 22,-7 7,0 14,2 19,6 7,2 11,12 11,28l0 3 -59 0zm161 -31l35 0 0 174 72 0 0 -174 49 0 6 -61 -55 0 0 -27c0,-10 1,-16 4,-20 3,-4 9,-6 18,-6l33 0 0 -60 -55 0c-12,0 -24,2 -34,6 -25,10 -38,34 -38,71l0 36 -35 0 0 61zm183 108c0,15 4,30 13,43 13,17 30,25 51,25l7 0c21,0 42,-6 64,-17 1,5 2,9 2,10 0,0 0,1 1,1 0,0 0,0 0,0 0,1 0,1 0,1 0,1 1,2 1,3l60 0 0 -145c0,-6 0,-11 0,-16 -1,-4 -1,-9 -2,-14 0,-6 -1,-11 -2,-15 -2,-3 -3,-7 -6,-12 -2,-4 -5,-8 -8,-11 -3,-3 -7,-6 -12,-9 -5,-3 -10,-5 -16,-7 -7,-2 -14,-3 -22,-4 -9,-1 -18,-2 -28,-2l-72 0 -7 61 68 0c12,0 22,2 27,5 5,3 7,12 7,28l0 8 -34 0c-33,0 -54,3 -62,8 -20,10 -30,28 -30,57l0 2zm72 -2c0,-6 2,-10 4,-13 3,-3 11,-4 26,-4l24 0 0 26c-14,7 -25,10 -34,10 -13,0 -20,-6 -20,-19zm156 -31c0,18 1,33 2,43 2,11 4,19 7,26 8,13 17,21 28,26 10,4 23,7 38,7 3,0 6,0 7,-1 8,0 17,-1 25,-3 11,-2 22,-6 33,-11 5,-2 7,-3 7,-3 1,3 2,6 4,11l3 3 60 0 0 -234 -73 0 0 166c-10,6 -20,9 -32,10 -1,0 -2,0 -4,0 -3,0 -6,0 -10,0 -14,-3 -21,-12 -21,-27l0 -149 -74 0 0 136zm245 4c0,4 1,8 1,11 0,10 3,20 7,31 16,36 50,54 101,54 5,0 11,0 17,-1l0 -60c-17,0 -30,-1 -38,-3 -10,-4 -15,-13 -15,-29l0 -251 -73 12 0 236zm149 -80l36 0 0 45 0 14c0,7 0,15 0,23l0 8 0 3c0,12 1,22 3,31 3,9 5,17 9,22 3,6 7,10 13,14 6,5 11,8 16,10 5,1 11,3 19,4 10,1 23,1 41,1l7 0 17 0 0 -52c0,0 -3,-1 -8,-1 -12,-1 -22,-3 -29,-6 -4,-1 -6,-3 -8,-4 -4,-3 -7,-7 -7,-12 -1,-5 -2,-10 -2,-17l0 -83 48 0 8 -60 -56 0 0 -71 -71 12 0 59 -36 0 0 60z"/>
   <path class="fil4" d="M4183 893c0,9 -6,20 -18,33 -3,3 -7,7 -11,11 -5,4 -9,8 -14,12 -5,4 -10,8 -15,12 -5,4 -9,8 -14,11 -14,11 -28,21 -43,30 -15,10 -30,18 -46,25 -15,7 -30,13 -46,17 -15,4 -30,6 -44,6 -15,0 -29,-2 -40,-6 -12,-5 -21,-11 -29,-19 -7,-8 -13,-18 -17,-30 -3,-11 -5,-24 -5,-38 0,-13 1,-27 4,-40 3,-13 7,-26 12,-39 5,-13 11,-26 18,-37 7,-12 14,-24 23,-34 5,-6 10,-12 17,-19 6,-6 13,-12 20,-18 7,-6 14,-12 21,-17 7,-5 14,-10 21,-14 4,-3 10,-6 17,-9 7,-3 14,-7 22,-10 7,-3 15,-5 22,-7 8,-2 14,-3 19,-3 9,0 16,0 21,1 6,2 10,4 14,7 2,1 4,3 7,6 2,3 5,6 7,10 2,3 4,7 6,10 1,4 2,7 2,9 0,3 -1,6 -4,11 -2,5 -5,10 -8,15 -3,6 -6,11 -9,15 -3,5 -5,8 -6,9 -6,7 -13,10 -19,10 -6,0 -11,-2 -14,-5 -3,-4 -5,-8 -5,-13 0,-2 1,-5 4,-9 2,-4 5,-9 10,-14 5,-5 9,-9 12,-13 3,-5 5,-7 5,-9 -3,-2 -6,-4 -10,-5 -4,-1 -8,-1 -12,-1 -5,0 -11,1 -19,3 -8,3 -15,6 -23,9 -8,4 -16,8 -24,13 -7,4 -13,9 -19,13 -14,12 -28,25 -40,39 -13,14 -23,30 -31,47 -4,7 -7,14 -10,22 -3,7 -5,15 -7,23 -3,8 -4,16 -5,24 -2,7 -2,15 -2,22 0,9 1,16 3,24 2,7 5,13 9,19 5,5 10,9 18,12 7,3 16,5 26,5 12,0 24,-2 36,-5 12,-3 24,-7 36,-13 12,-5 24,-11 35,-18 12,-7 23,-15 34,-22 11,-8 21,-15 31,-23 10,-8 19,-15 27,-21 3,-3 7,-6 10,-9 4,-4 7,-7 11,-10 4,-4 7,-7 10,-10 4,-4 7,-7 9,-9 7,3 10,8 10,14zm291 -42c0,3 0,5 -1,8 -1,2 -3,5 -5,7 -1,2 -3,5 -5,7 -2,2 -4,4 -7,5 -5,3 -12,6 -21,9 -9,2 -21,3 -34,3 -11,0 -22,-1 -33,-4 -11,-3 -22,-7 -32,-14 3,5 5,10 6,15 1,4 2,10 2,16 0,11 -3,23 -9,36 -5,13 -13,25 -22,36 -9,11 -18,20 -28,28 -5,4 -11,7 -18,10 -7,3 -14,6 -21,8 -7,2 -15,3 -23,4 -8,1 -16,2 -24,2 -5,0 -11,-2 -16,-6 -5,-3 -10,-8 -14,-13 -5,-5 -8,-11 -10,-16 -3,-6 -4,-12 -4,-16 0,-12 1,-23 4,-34 4,-10 8,-21 13,-31 5,-10 11,-19 18,-29 7,-10 14,-19 22,-29 4,-5 9,-10 15,-15 5,-5 11,-10 17,-14 6,-4 12,-7 18,-10 7,-2 12,-3 18,-3 5,0 9,0 12,2 3,1 6,3 9,5 3,3 6,5 9,9 3,4 7,8 11,12 1,1 5,3 11,6 5,2 12,5 20,7 8,2 17,5 25,6 9,2 17,3 24,3 7,0 14,0 20,-1 6,0 12,-1 17,-2 6,-1 12,-3 17,-5 6,-2 12,-4 18,-7 1,2 1,4 1,5zm-160 52c0,-4 0,-9 -1,-14 -1,-5 -2,-10 -4,-14 -2,-5 -4,-8 -7,-11 -3,-3 -7,-4 -11,-4 -7,-2 -12,-5 -16,-8 -5,-3 -8,-4 -10,-4 -2,0 -4,0 -6,2 -2,1 -4,2 -6,4 -2,2 -4,4 -7,6 -2,3 -4,6 -6,8 -4,6 -8,11 -12,16 -4,4 -7,9 -10,13 -4,5 -7,9 -10,14 -3,5 -6,11 -9,17 -1,3 -2,6 -3,9 -1,4 -2,8 -3,11 -1,4 -1,8 -1,12 -1,4 -1,7 -1,10 0,2 1,4 2,7 1,3 3,5 5,8 2,2 4,4 7,6 3,2 5,2 8,2 7,0 14,0 19,0 5,-1 10,-2 14,-4 4,-2 9,-4 13,-7 5,-3 10,-6 16,-11 3,-2 5,-5 8,-7 3,-3 6,-6 8,-9 3,-4 6,-7 8,-10 3,-4 5,-7 7,-10 1,-3 3,-5 4,-8 1,-4 2,-7 2,-10 1,-3 1,-6 1,-8 1,-3 1,-5 1,-6zm321 -45c0,1 0,2 0,4 0,1 -1,3 -1,5 -1,1 -2,3 -2,4 -1,1 -2,2 -3,2 -1,0 -3,0 -5,0 -2,0 -4,0 -6,0 -2,0 -4,-1 -7,-1 -2,0 -3,0 -4,0 -27,2 -50,12 -68,30 -18,18 -34,42 -47,72 -2,6 -5,13 -7,19 -2,7 -4,14 -7,21 -1,4 -2,8 -2,11 -1,3 -1,6 -3,10 0,1 -1,2 -3,3 -2,1 -5,2 -7,3 -3,1 -6,1 -8,2 -3,1 -4,1 -5,1 -10,0 -16,-10 -17,-31 0,-6 0,-11 0,-15 0,-5 0,-10 0,-14 1,-4 1,-9 1,-14 1,-5 1,-10 2,-16 1,-7 2,-16 3,-26 1,-10 2,-19 3,-29 1,-10 3,-20 4,-29 2,-9 3,-16 5,-22 1,-7 3,-12 6,-15 3,-3 7,-5 13,-5 1,0 3,0 4,1 2,1 3,2 5,3 1,1 2,3 3,4 1,1 2,3 2,4 0,4 0,7 0,12 -1,4 -1,8 -2,13 -1,4 -2,9 -3,13 -1,5 -2,9 -3,14 -2,8 -3,15 -4,21 -1,5 -2,11 -3,16 -1,6 -1,12 -2,18 -1,6 -2,14 -3,23 3,-5 5,-10 7,-14 1,-4 3,-7 4,-10 2,-3 3,-6 4,-8 2,-2 3,-5 4,-7 2,-3 3,-5 5,-8 2,-3 4,-7 7,-11 10,-17 20,-31 32,-41 11,-11 22,-18 33,-23 12,-6 22,-9 30,-9 3,0 8,0 13,1 5,0 10,1 15,3 4,1 9,3 12,6 3,2 5,5 5,9zm356 8c0,5 -2,10 -5,16 0,2 -2,4 -3,5 -2,2 -4,4 -6,6 -2,1 -4,3 -6,4 -2,2 -3,3 -4,3 -5,4 -11,9 -18,13 -8,5 -16,10 -25,16 -9,5 -19,11 -29,16 -10,6 -20,11 -30,16 -11,6 -20,11 -30,15 -10,5 -18,9 -26,13 -6,2 -12,5 -17,9 -5,3 -10,6 -15,9 -5,2 -10,5 -15,7 -5,1 -10,2 -16,2 -3,0 -6,0 -9,-1 -3,-1 -6,-2 -9,-4 -2,-1 -4,-4 -5,-6 -2,-3 -3,-6 -3,-10 0,-2 1,-4 2,-5 2,-2 3,-4 6,-5 2,-1 4,-3 7,-4 2,-1 5,-2 7,-3 3,-1 6,-2 9,-3 4,-1 7,-2 11,-3 4,-1 7,-2 10,-3 4,-2 7,-3 9,-4 5,-2 9,-5 13,-9 4,-4 8,-8 11,-12 4,-5 7,-9 10,-14 3,-5 6,-10 8,-14 2,-3 4,-6 5,-10 2,-4 3,-8 4,-11 2,-4 3,-8 3,-11 1,-3 1,-6 1,-9 0,-9 -2,-17 -6,-23 -5,-6 -10,-9 -16,-9 -4,0 -9,1 -14,4 -5,3 -11,6 -16,10 -5,3 -10,7 -15,11 -4,4 -8,8 -10,11 -7,7 -13,14 -19,23 -6,8 -11,16 -17,25 -5,9 -10,17 -14,26 -5,9 -9,17 -13,25 -2,7 -3,14 -5,23 -2,8 -3,17 -4,26 -1,20 -2,37 -3,52 -1,15 -3,29 -5,42 -1,5 -3,9 -6,12 -4,4 -8,5 -13,5 -2,0 -4,0 -6,-1 -2,-1 -4,-2 -6,-3 -2,-1 -3,-3 -5,-5 -1,-2 -2,-4 -2,-6 0,-5 0,-10 1,-17 1,-7 2,-14 2,-21 1,-7 2,-14 3,-19 1,-6 1,-10 1,-12 2,-15 4,-31 6,-48 1,-17 3,-36 4,-56 0,-5 0,-10 0,-17 0,-8 1,-15 1,-22 0,-7 0,-14 1,-20 0,-6 0,-11 0,-13 2,-28 9,-41 22,-41 2,0 5,0 7,1 2,2 4,3 6,5 1,2 3,4 4,7 1,2 1,4 1,7 0,5 0,10 -1,16 -1,6 -3,12 -4,18 -1,6 -2,12 -3,18 -1,6 -2,11 -2,16 0,4 0,6 1,6 10,-18 20,-34 30,-47 9,-14 19,-26 29,-35 6,-5 12,-11 18,-15 6,-5 12,-9 18,-13 6,-3 12,-6 19,-8 6,-2 13,-3 21,-3 5,0 10,1 15,3 6,3 11,7 15,12 4,5 8,12 10,19 3,7 5,16 4,25 1,7 -1,14 -3,21 -2,8 -5,15 -9,22 -4,7 -9,13 -14,20 -5,6 -11,12 -16,18 12,-5 24,-10 36,-17 12,-6 25,-13 37,-21 13,-7 25,-15 37,-23 12,-8 23,-16 34,-23 3,-3 6,-4 8,-6 2,-2 4,-2 7,-2 2,0 3,1 3,2 1,2 1,4 1,6zm259 -15c0,3 0,5 -1,8 -2,2 -3,5 -5,7 -1,2 -3,5 -5,7 -2,2 -5,4 -7,5 -5,3 -12,6 -21,9 -9,2 -21,3 -34,3 -11,0 -22,-1 -33,-4 -11,-3 -22,-7 -32,-14 3,5 5,10 6,15 1,4 2,10 2,16 0,11 -3,23 -9,36 -6,13 -13,25 -22,36 -9,11 -18,20 -28,28 -5,4 -12,7 -18,10 -7,3 -14,6 -21,8 -8,2 -15,3 -23,4 -8,1 -16,2 -24,2 -5,0 -11,-2 -16,-6 -6,-3 -10,-8 -14,-13 -5,-5 -8,-11 -10,-16 -3,-6 -4,-12 -4,-16 0,-12 1,-23 4,-34 3,-10 8,-21 13,-31 5,-10 11,-19 18,-29 7,-10 14,-19 22,-29 4,-5 9,-10 15,-15 5,-5 11,-10 17,-14 6,-4 12,-7 18,-10 6,-2 12,-3 18,-3 5,0 9,0 12,2 3,1 6,3 9,5 3,3 6,5 9,9 3,4 7,8 11,12 1,1 5,3 10,6 6,2 13,5 21,7 8,2 16,5 25,6 9,2 17,3 24,3 7,0 14,0 20,-1 6,0 12,-1 17,-2 6,-1 12,-3 17,-5 6,-2 12,-4 18,-7 1,2 1,4 1,5zm-160 52c0,-4 -1,-9 -1,-14 -1,-5 -2,-10 -4,-14 -2,-5 -4,-8 -7,-11 -3,-3 -7,-4 -11,-4 -7,-2 -12,-5 -16,-8 -5,-3 -8,-4 -10,-4 -2,0 -4,0 -6,2 -2,1 -4,2 -6,4 -2,2 -4,4 -7,6 -2,3 -4,6 -6,8 -5,6 -9,11 -12,16 -4,4 -7,9 -11,13 -3,5 -6,9 -9,14 -3,5 -6,11 -9,17 -1,3 -2,6 -3,9 -1,4 -2,8 -3,11 -1,4 -1,8 -2,12 0,4 0,7 0,10 0,2 1,4 2,7 1,3 3,5 5,8 2,2 4,4 7,6 3,2 5,2 8,2 7,0 13,0 19,0 5,-1 10,-2 14,-4 4,-2 9,-4 13,-7 5,-3 10,-6 16,-11 2,-2 5,-5 8,-7 3,-3 6,-6 8,-9 3,-4 6,-7 8,-10 3,-4 5,-7 7,-10 1,-3 3,-5 4,-8 1,-4 1,-7 2,-10 1,-3 1,-6 1,-8 0,-3 1,-5 1,-6z"/>
  </g>
 </g>
</svg>
