<?xml version="1.0" encoding="UTF-8"?>
<!DOCTYPE svg PUBLIC "-//W3C//DTD SVG 1.1//EN" "http://www.w3.org/Graphics/SVG/1.1/DTD/svg11.dtd">
<!-- Creator: CorelDRAW X7 -->
<svg xmlns="http://www.w3.org/2000/svg" xml:space="preserve" width="86.6986mm" height="65.024mm" version="1.1" style="shape-rendering:geometricPrecision; text-rendering:geometricPrecision; image-rendering:optimizeQuality; fill-rule:evenodd; clip-rule:evenodd"
viewBox="0 0 8670 6502"
 xmlns:xlink="http://www.w3.org/1999/xlink">
 <defs>
  <style type="text/css">
   <![CDATA[
    .fil2 {fill:#2B2A29}
    .fil3 {fill:#00A0E3}
    .fil0 {fill:#184781}
    .fil1 {fill:#009BD9}
   ]]>
  </style>
 </defs>
 <g id="Warstwa_x0020_1">
  <metadata id="CorelCorpID_0Corel-Layer"/>
  <g id="_939955760">
   <polygon class="fil0" points="3734,1257 4886,1257 4886,2873 4842,2873 4842,1727 4841,1727 4841,1685 4841,1685 4574,1310 4574,1684 4574,1684 4574,1309 4538,1309 4538,1308 3734,1308 "/>
   <path class="fil1" d="M3617 1352l874 0 0 352 0 0 0 67 126 0 0 -1 178 0 0 1174 -1178 0 0 -1592zm773 352l-331 0 0 67 331 0 0 -67zm137 -350l267 374 -267 0 0 -374zm-764 1276l847 0 0 66 -847 0 0 -66zm8 -339l845 0 0 66 -845 0 0 -66zm285 -384l558 0 0 66 -558 0 0 -66zm-290 621l846 0 0 67 -846 0 0 -67zm8 -338l844 0 0 66 -844 0 0 -66zm283 -384l559 0 0 66 -559 0 0 -66zm-289 621l846 0 0 66 -846 0 0 -66zm8 -339l844 0 0 67 -844 0 0 -67zm-11 -98l14 0c21,0 38,-2 52,-5 13,-4 28,-11 44,-22 9,-7 17,-14 24,-22 6,-8 12,-17 17,-28 11,-24 17,-59 17,-105l0 -287 -88 0 0 303c0,22 -4,38 -12,48 -8,11 -17,18 -28,21 -9,2 -20,4 -32,4l-8 93z"/>
  </g>
  <g id="_939959856">
   <path class="fil0" d="M0 2170l185 -64c41,66 89,144 144,237l83 143 73 -137c16,-30 32,-59 47,-86l141 439 -455 154 -218 -686zm961 1l-308 -106c-28,44 -58,91 -88,142l159 496 455 154 -218 -686zm59 -7l448 -154c4,-1 6,3 7,6l218 680 -455 154 -218 -686z"/>
   <path class="fil1" d="M418 1262c191,0 346,155 346,346 0,174 -140,290 -291,575l-52 98 -60 -102c-237,-406 -289,-400 -289,-571 0,-191 155,-346 346,-346zm-6 103c124,0 225,101 225,225 0,124 -101,224 -225,224 -124,0 -224,-100 -224,-224 0,-124 100,-225 224,-225z"/>
  </g>
  <g id="_939888880">
   <path class="fil1" d="M1921 2332l7 42c49,-14 64,-95 173,-46 57,25 30,-33 144,16 40,17 84,-38 157,24 16,14 27,36 29,62 147,3 131,169 98,230 74,39 160,160 196,7 -33,-49 -98,-45 -112,-105 27,3 35,10 53,24 17,12 29,21 43,34 25,23 50,61 93,61 33,0 127,-59 9,-128 -15,-9 -24,-14 -39,-23l-72 -54c-19,-12 -29,-12 -31,-39 214,102 285,273 329,83l-102 -72c-35,-23 -83,-47 -94,-88 90,47 88,47 170,116 19,17 60,53 90,54 51,3 94,-72 48,-122 -34,-37 -83,-59 -122,-87 -113,-83 -217,-164 -333,-241 -30,-20 -158,-98 -189,-98 -71,0 -225,215 -355,83 -96,-99 -4,-171 -1,-209l-63 0c-66,124 -126,287 -126,476z"/>
   <path class="fil0" d="M2110 1961c0,67 60,105 84,105 93,0 226,-126 273,-131 24,-1 116,49 139,61 64,33 294,208 359,257 47,36 141,114 188,117 87,7 68,-52 68,-115 0,-100 -31,-199 -77,-280 -16,-28 -33,-40 -48,-70 -206,99 -490,-174 -637,-174 -53,0 -147,69 -193,93 -49,25 -156,69 -156,137z"/>
   <path class="fil0" d="M1970 2444c0,56 29,127 79,137l30 5c16,6 44,69 136,25 0,60 13,70 84,70 21,0 28,-6 41,-14 20,84 100,77 128,44 33,-39 94,-239 -23,-239 -20,0 -36,9 -56,14 34,-70 -54,-133 -114,-94 -21,14 -3,7 -25,24 -9,-33 -36,-49 -77,-49 -35,0 -41,20 -63,35 -21,-80 -140,-64 -140,42z"/>
   <path class="fil1" d="M1879 2381c0,-198 57,-387 140,-560 -51,-11 -120,-112 -157,12 -11,37 -17,60 -28,97l-121 368c-5,80 117,59 166,83z"/>
   <path class="fil0" d="M3130 1863c4,44 133,179 133,427l0 91c142,0 115,-28 113,-49 -4,-73 -40,-454 -54,-485 -23,-50 -127,15 -192,16z"/>
   <path class="fil2" d="M2403 1346l3 -2c-1,0 -3,1 -3,2z"/>
   <path class="fil2" d="M2697 1346l2 -2c0,0 -3,1 -2,2z"/>
  </g>
  <g id="_939900592">
   <path class="fil3" d="M5633 2059l709 0c113,0 205,92 205,205l0 481c0,113 -92,205 -205,205l-1034 0c-113,0 -205,-92 -205,-205l0 -481c0,-102 75,-188 173,-203l0 -92 357 0 0 90zm192 255c113,0 204,91 204,204 0,113 -91,204 -204,204 -113,0 -205,-91 -205,-204 0,-113 92,-204 205,-204zm0 -104c170,0 307,138 307,308 0,170 -137,308 -307,308 -170,0 -308,-138 -308,-308 0,-170 138,-308 308,-308z"/>
   <polygon class="fil0" points="6465,2012 6460,1823 6706,1817 6200,1266 5723,1841 5969,1835 5973,2009 "/>
  </g>
  <g id="_939900720">
   <path class="fil3" d="M6856 1310l191 0c56,69 138,112 229,112 92,0 174,-43 230,-112l169 0c56,65 136,106 224,106 89,0 168,-41 225,-106l189 0 0 1457 -1457 0 0 -1457zm1090 661l268 0 0 268 -268 0 0 -268zm0 -331l268 0 0 269 -268 0 0 -269zm-331 661l269 0 0 268 -269 0 0 -268zm-330 0l268 0 0 268 -268 0 0 -268zm-330 0l268 0 0 268 -268 0 0 -268zm660 -661l269 0 0 269 -269 0 0 -269zm0 331l269 0 0 268 -269 0 0 -268zm-330 0l268 0 0 268 -268 0 0 -268zm-330 0l268 0 0 268 -268 0 0 -268zm330 -331l268 0 0 269 -268 0 0 -269zm-330 0l268 0 0 269 -268 0 0 -269z"/>
   <polygon class="fil0" points="8361,1493 8467,1493 8467,2950 7010,2950 7010,2813 8361,2813 "/>
  </g>
  <g id="_937989984">
   <polygon class="fil2" points="3734,3289 4886,3289 4886,4905 4842,4905 4842,3759 4841,3759 4841,3717 4841,3717 4574,3342 4574,3717 4574,3717 4574,3341 4538,3341 4538,3341 3734,3341 "/>
   <path class="fil2" d="M3617 3384l874 0 0 352 0 0 0 67 126 0 0 0 178 0 0 1173 -1178 0 0 -1592zm773 352l-331 0 0 67 331 0 0 -67zm137 -350l267 374 -267 0 0 -374zm-764 1276l847 0 0 66 -847 0 0 -66zm8 -339l845 0 0 67 -845 0 0 -67zm285 -384l558 0 0 67 -558 0 0 -67zm-290 621l846 0 0 67 -846 0 0 -67zm8 -338l844 0 0 66 -844 0 0 -66zm283 -384l559 0 0 66 -559 0 0 -66zm-289 621l846 0 0 66 -846 0 0 -66zm8 -338l844 0 0 66 -844 0 0 -66zm-11 -99l14 0c21,0 38,-2 52,-5 13,-4 28,-11 44,-22 9,-7 17,-14 24,-22 6,-7 12,-17 17,-28 11,-24 17,-59 17,-105l0 -287 -88 0 0 303c0,22 -4,38 -12,49 -8,10 -17,17 -28,20 -9,2 -20,4 -32,4l-8 93z"/>
  </g>
  <g id="_1005703744">
   <path class="fil2" d="M0 4202l185 -63c41,65 89,143 144,236l83 143 73 -137c16,-30 32,-59 47,-86l141 439 -455 154 -218 -686zm961 1l-308 -106c-28,44 -58,91 -88,142l159 496 455 154 -218 -686zm59 -7l448 -154c4,-1 6,3 7,6l218 680 -455 154 -218 -686z"/>
   <path class="fil2" d="M418 3294c191,0 346,155 346,347 0,173 -140,289 -291,574l-52 98 -60 -102c-237,-406 -289,-400 -289,-570 0,-192 155,-347 346,-347zm-6 103c124,0 225,101 225,225 0,124 -101,224 -225,224 -124,0 -224,-100 -224,-224 0,-124 100,-225 224,-225z"/>
  </g>
  <g id="_1005705632">
   <path class="fil2" d="M1921 4364l7 42c49,-13 64,-95 173,-46 57,25 30,-33 144,16 40,17 84,-38 157,24 16,14 27,36 29,62 147,3 131,169 98,230 74,39 160,160 196,7 -33,-49 -98,-45 -112,-104 27,2 35,10 53,23 17,13 29,21 43,34 25,23 50,61 93,61 33,0 127,-58 9,-128 -15,-9 -24,-13 -39,-23l-72 -54c-19,-12 -29,-12 -31,-39 214,103 285,273 329,84l-102 -73c-35,-23 -83,-47 -94,-88 90,48 88,47 170,117 19,16 60,52 90,53 51,4 94,-72 48,-122 -34,-37 -83,-59 -122,-87 -113,-82 -217,-164 -333,-241 -30,-20 -158,-98 -189,-98 -71,0 -225,215 -355,83 -96,-99 -4,-170 -1,-209l-63 0c-66,124 -126,287 -126,476z"/>
   <path class="fil2" d="M2110 3993c0,67 60,105 84,105 93,0 226,-126 273,-130 24,-2 116,48 139,60 64,33 294,208 359,257 47,36 141,114 188,117 87,7 68,-51 68,-115 0,-100 -31,-199 -77,-280 -16,-28 -33,-40 -48,-70 -206,99 -490,-174 -637,-174 -53,0 -147,70 -193,93 -49,25 -156,69 -156,137z"/>
   <path class="fil2" d="M1970 4476c0,56 29,127 79,137l30 5c16,6 44,69 136,25 0,60 13,70 84,70 21,0 28,-6 41,-14 20,84 100,77 128,44 33,-39 94,-239 -23,-239 -20,0 -36,9 -56,14 34,-70 -54,-133 -114,-94 -21,14 -3,8 -25,24 -9,-33 -36,-49 -77,-49 -35,0 -41,20 -63,35 -21,-80 -140,-64 -140,42z"/>
   <path class="fil2" d="M1879 4413c0,-198 57,-387 140,-560 -51,-11 -120,-112 -157,12 -11,37 -17,60 -28,97l-121 369c-5,79 117,58 166,82z"/>
   <path class="fil2" d="M3130 3895c4,44 133,179 133,427l0 91c142,0 115,-28 113,-49 -4,-73 -40,-454 -54,-485 -23,-50 -127,15 -192,16z"/>
   <path class="fil2" d="M2403 3378l3 -2c-1,0 -3,1 -3,2z"/>
   <path class="fil2" d="M2697 3378l2 -2c0,0 -3,1 -2,2z"/>
  </g>
  <g id="_943167008">
   <path class="fil2" d="M5633 4091l709 0c113,0 205,92 205,205l0 481c0,113 -92,205 -205,205l-1034 0c-113,0 -205,-92 -205,-205l0 -481c0,-102 75,-188 173,-203l0 -91 357 0 0 89zm192 255c113,0 204,91 204,204 0,113 -91,204 -204,204 -113,0 -205,-91 -205,-204 0,-113 92,-204 205,-204zm0 -104c170,0 307,138 307,308 0,170 -137,308 -307,308 -170,0 -308,-138 -308,-308 0,-170 138,-308 308,-308z"/>
   <polygon class="fil2" points="6465,4044 6460,3855 6706,3849 6200,3298 5723,3873 5969,3867 5973,4041 "/>
  </g>
  <g id="_943162336">
   <path class="fil2" d="M6856 3342l191 0c56,69 138,112 229,112 92,0 174,-43 230,-112l169 0c56,65 136,106 224,106 89,0 168,-41 225,-106l189 0 0 1457 -1457 0 0 -1457zm1090 661l268 0 0 268 -268 0 0 -268zm0 -331l268 0 0 269 -268 0 0 -269zm-331 661l269 0 0 268 -269 0 0 -268zm-330 0l268 0 0 268 -268 0 0 -268zm-330 0l268 0 0 268 -268 0 0 -268zm660 -661l269 0 0 269 -269 0 0 -269zm0 331l269 0 0 268 -269 0 0 -268zm-330 0l268 0 0 268 -268 0 0 -268zm-330 0l268 0 0 268 -268 0 0 -268zm330 -331l268 0 0 269 -268 0 0 -269zm-330 0l268 0 0 269 -268 0 0 -269z"/>
   <polygon class="fil2" points="8361,3525 8467,3525 8467,4982 7010,4982 7010,4845 8361,4845 "/>
  </g>
 </g>
</svg>
