<?xml version="1.0" encoding="UTF-8"?>
<!DOCTYPE svg PUBLIC "-//W3C//DTD SVG 1.1//EN" "http://www.w3.org/Graphics/SVG/1.1/DTD/svg11.dtd">
<!-- Creator: CorelDRAW X7 -->
<svg xmlns="http://www.w3.org/2000/svg" xml:space="preserve" width="16.1056mm" height="16.399mm" version="1.1" style="shape-rendering:geometricPrecision; text-rendering:geometricPrecision; image-rendering:optimizeQuality; fill-rule:evenodd; clip-rule:evenodd"
viewBox="0 0 514 524"
 xmlns:xlink="http://www.w3.org/1999/xlink">
 <defs>
  <style type="text/css">
   <![CDATA[
    .fil0 {fill:#2B2A29}
   ]]>
  </style>
 </defs>
 <g id="Warstwa_x0020_1">
  <metadata id="CorelCorpID_0Corel-Layer"/>
  <g id="_936331120">
   <path class="fil0" d="M0 0l61 0c18,22 44,36 73,36 29,0 56,-14 74,-36l54 0c18,21 43,34 71,34 28,0 54,-13 72,-34l60 0 0 465 -465 0 0 -465zm348 211l86 0 0 86 -86 0 0 -86zm0 -105l86 0 0 85 -86 0 0 -85zm-106 210l86 0 0 86 -86 0 0 -86zm-105 0l86 0 0 86 -86 0 0 -86zm-105 0l85 0 0 86 -85 0 0 -86zm210 -210l86 0 0 85 -86 0 0 -85zm0 105l86 0 0 86 -86 0 0 -86zm-105 0l86 0 0 86 -86 0 0 -86zm-105 0l85 0 0 86 -85 0 0 -86zm105 -105l86 0 0 85 -86 0 0 -85zm-105 0l85 0 0 85 -85 0 0 -85z"/>
   <polygon class="fil0" points="481,58 514,58 514,524 49,524 49,480 481,480 "/>
  </g>
 </g>
</svg>
