<?xml version="1.0" encoding="UTF-8"?>
<!DOCTYPE svg PUBLIC "-//W3C//DTD SVG 1.1//EN" "http://www.w3.org/Graphics/SVG/1.1/DTD/svg11.dtd">
<!-- Creator: CorelDRAW X7 -->
<svg xmlns="http://www.w3.org/2000/svg" xml:space="preserve" width="42.3332mm" height="42.3332mm" version="1.1" style="shape-rendering:geometricPrecision; text-rendering:geometricPrecision; image-rendering:optimizeQuality; fill-rule:evenodd; clip-rule:evenodd"
viewBox="0 0 4233 4233"
 xmlns:xlink="http://www.w3.org/1999/xlink">
 <defs>
  <style type="text/css">
   <![CDATA[
    .fil2 {fill:#FEFEFE}
    .fil3 {fill:#FEFEFE;fill-rule:nonzero}
    .fil0 {fill:#2B2A29;fill-opacity:0.309804}
    .fil1 {fill:url(#id0)}
   ]]>
  </style>
  <linearGradient id="id0" gradientUnits="userSpaceOnUse" x1="761.92" y1="3478.42" x2="3347.17" y2="659.41">
   <stop offset="0" style="stop-opacity:1; stop-color:#194680"/>
   <stop offset="0.278431" style="stop-opacity:1; stop-color:#1470AB"/>
   <stop offset="1" style="stop-opacity:1; stop-color:#0E9AD7"/>
  </linearGradient>
 </defs>
 <g id="Warstwa_x0020_1">
  <metadata id="CorelCorpID_0Corel-Layer"/>
  <g id="_1018144608">
   <path class="fil0" d="M378 166l3602 0c127,0 232,104 232,232l0 3601c0,128 -105,233 -232,233l-3602 0c-128,0 -232,-105 -232,-233l0 -3601c0,-128 104,-232 232,-232z"/>
   <path class="fil1" d="M254 2l3601 0c128,0 233,104 233,232l0 68 0 3533 0 69c0,128 -105,232 -233,232l-3601 0c-128,0 -233,-104 -233,-232l0 -596 0 -3006 0 -68c0,-70 32,-133 81,-176l4 -3 4 -3 1 -1c2,-2 5,-4 8,-6l1 0 0 -1 4 -3 0 0 3 -1 2 -2 0 0 2 -1 3 -2 1 -1 2 -1 1 0 1 -1c3,-1 6,-3 9,-4l0 -1 0 0 1 0 4 -2 0 0 2 -1 3 -1 0 -1 1 0c3,-1 6,-3 9,-4l1 0 0 0 5 -2c3,-1 7,-2 10,-4l1 0 0 0 5 -1 0 -1 1 0 4 -1 1 0 0 0 5 -1 1 0 0 0 4 -1 1 -1 1 0 4 0 1 -1 0 0 5 -1 1 0 0 0 0 0 4 0 1 0 1 0 0 -1 5 0 0 0 2 0c3,-1 7,-1 10,-1l0 0 1 0 4 0 1 0 0 0 6 0z"/>
   <path class="fil2" d="M205 3965l812 -1608c11,51 33,94 68,127 18,16 38,30 60,41l-719 1439 -221 1zm954 -1891l145 -285 81 0 -72 401 -118 236c-13,-6 -24,-14 -33,-23 -27,-25 -40,-63 -41,-115l38 -214zm201 -396l507 -1006 -1064 4c-339,-11 -345,318 -358,441l-139 0 7 -712 1889 8 -361 721c-159,161 -263,319 -319,545l-4 -1 -66 0 -92 0zm1400 -887c690,0 1249,560 1249,1250 0,690 -559,1249 -1249,1249 -504,0 -939,-299 -1136,-729l166 0 47 0 2 -14c179,324 524,544 921,544 405,0 756,-230 931,-565 9,-3 17,-6 23,-8l24 -10 8 -23 66 -183 56 -155 -13 8c2,-9 4,-18 6,-30l0 0c6,-26 10,-52 13,-78 2,-25 4,-51 4,-77 0,-42 -4,-80 -13,-112l0 -1c-10,-35 -25,-65 -46,-89l0 -1c-19,-22 -39,-40 -62,-55 -137,-419 -532,-722 -997,-722 -453,0 -839,287 -987,688l-59 0c-62,0 -153,-1 -150,0 0,0 3,-12 5,-18 161,-504 633,-869 1191,-869zm-1000 1572c-29,-90 -46,-185 -50,-284l-26 146 0 0c-2,14 -6,29 -14,45l0 0c-6,15 -15,31 -27,48l0 0c-15,23 -36,42 -63,56l-4 2 24 4 0 0 12 2 10 6c29,20 38,41 27,62l95 0 16 -87z"/>
   <path class="fil3" d="M984 2228c-67,378 -851,293 -843,247l42 -234c104,125 443,127 484,-107l122 -698 336 -1 -141 793zm81 55l99 -550 288 0 -89 496c0,41 8,71 25,89 17,18 49,27 97,27 55,-8 92,-28 112,-58 20,-30 30,-54 33,-72l84 -481 215 0 -139 772 -214 0c2,-10 7,-32 9,-42 2,-10 3,-19 5,-29 3,0 -9,7 -37,20 -27,14 -63,27 -106,38 -44,11 -92,13 -148,13 -156,-10 -234,-82 -234,-223zm2046 -547l-476 766 -138 -518 -336 521 -200 -771 308 1 59 226 126 -176 -9 -50 312 0 42 204 130 -203 182 0zm222 450c-4,0 -7,18 -7,55 0,84 45,126 135,126 72,-2 134,-13 188,-33 53,-21 90,-38 111,-51l-66 183c-22,8 -63,20 -121,33 -58,14 -126,21 -204,21 -6,0 -15,-1 -26,-2 -12,0 -21,-1 -26,-1 -181,-9 -272,-102 -272,-276 1,-40 4,-76 10,-110 46,-272 190,-410 432,-415 75,0 134,6 178,16 43,11 81,35 112,71 30,36 45,92 45,167 0,47 -5,95 -15,144 -10,49 -17,73 -20,73l-454 -1zm190 -304c-64,0 -108,22 -130,65 -23,43 -35,78 -37,107l263 0c5,0 9,-20 11,-61 1,-69 -35,-105 -107,-111z"/>
  </g>
 </g>
</svg>
