<?xml version="1.0" encoding="UTF-8"?>
<!DOCTYPE svg PUBLIC "-//W3C//DTD SVG 1.1//EN" "http://www.w3.org/Graphics/SVG/1.1/DTD/svg11.dtd">
<!-- Creator: CorelDRAW X7 -->
<svg xmlns="http://www.w3.org/2000/svg" xml:space="preserve" width="16.9334mm" height="15.9497mm" version="1.1" style="shape-rendering:geometricPrecision; text-rendering:geometricPrecision; image-rendering:optimizeQuality; fill-rule:evenodd; clip-rule:evenodd"
viewBox="0 0 331 311"
 xmlns:xlink="http://www.w3.org/1999/xlink">
 <defs>
  <style type="text/css">
   <![CDATA[
    .fil0 {fill:#2B2A29}
   ]]>
  </style>
 </defs>
 <g id="Warstwa_x0020_1">
  <metadata id="CorelCorpID_0Corel-Layer"/>
  <g id="_943162848">
   <path class="fil0" d="M0 177l36 -12c8,13 18,28 28,46l17 28 14 -27c3,-6 6,-11 9,-17l28 86 -89 30 -43 -134zm188 0l-60 -20c-6,8 -12,18 -18,28l31 96 89 30 -42 -134zm11 -1l88 -30c1,0 1,1 1,1l43 133 -89 30 -43 -134z"/>
   <path class="fil0" d="M82 0c37,0 67,30 67,68 0,34 -27,56 -57,112l-10 19 -11 -20c-47,-79 -57,-78 -57,-111 0,-38 30,-68 68,-68zm-1 20c24,0 43,20 43,44 0,24 -19,44 -43,44 -25,0 -44,-20 -44,-44 0,-24 19,-44 44,-44z"/>
  </g>
 </g>
</svg>
