<?xml version="1.0" encoding="UTF-8"?>
<!DOCTYPE svg PUBLIC "-//W3C//DTD SVG 1.1//EN" "http://www.w3.org/Graphics/SVG/1.1/DTD/svg11.dtd">
<!-- Creator: CorelDRAW X7 -->
<svg xmlns="http://www.w3.org/2000/svg" xml:space="preserve" width="12.6963mm" height="16.8706mm" version="1.1" style="shape-rendering:geometricPrecision; text-rendering:geometricPrecision; image-rendering:optimizeQuality; fill-rule:evenodd; clip-rule:evenodd"
viewBox="0 0 1122 1491"
 xmlns:xlink="http://www.w3.org/1999/xlink">
 <defs>
  <style type="text/css">
   <![CDATA[
    .fil0 {fill:#2B2A29}
   ]]>
  </style>
 </defs>
 <g id="Warstwa_x0020_1">
  <metadata id="CorelCorpID_0Corel-Layer"/>
  <g id="_807692256">
   <polygon class="fil0" points="104,0 1122,0 1122,1429 1083,1429 1083,416 1082,416 1082,378 1082,378 846,47 846,378 846,378 846,46 814,46 814,46 104,46 "/>
   <path class="fil0" d="M0 84l773 0 0 312 0 0 0 58 111 0 0 0 158 0 0 1037 -1042 0 0 -1407zm683 312l-292 0 0 58 292 0 0 -58zm122 -310l236 331 -236 0 0 -331zm-675 1127l748 0 0 59 -748 0 0 -59zm7 -299l746 0 0 59 -746 0 0 -59zm251 -339l494 0 0 58 -494 0 0 -58zm-256 549l748 0 0 58 -748 0 0 -58zm7 -299l746 0 0 58 -746 0 0 -58zm250 -340l494 0 0 59 -494 0 0 -59zm-255 549l748 0 0 59 -748 0 0 -59zm7 -299l746 0 0 59 -746 0 0 -59zm-10 -87l12 0c19,0 34,-1 46,-5 12,-3 25,-9 39,-19 9,-6 16,-13 21,-19 6,-7 11,-15 16,-25 10,-21 14,-52 14,-93l0 -253 -77 0 0 267c0,20 -4,34 -10,43 -8,9 -16,15 -25,18 -9,2 -18,4 -29,4l-7 82z"/>
  </g>
 </g>
</svg>
