<?xml version="1.0" encoding="UTF-8"?>
<!DOCTYPE svg PUBLIC "-//W3C//DTD SVG 1.1//EN" "http://www.w3.org/Graphics/SVG/1.1/DTD/svg11.dtd">
<!-- Creator: CorelDRAW X7 -->
<svg xmlns="http://www.w3.org/2000/svg" xml:space="preserve" width="16.0332mm" height="16.8452mm" version="1.1" style="shape-rendering:geometricPrecision; text-rendering:geometricPrecision; image-rendering:optimizeQuality; fill-rule:evenodd; clip-rule:evenodd"
viewBox="0 0 1674 1759"
 xmlns:xlink="http://www.w3.org/1999/xlink">
 <defs>
  <style type="text/css">
   <![CDATA[
    .fil0 {fill:#00A0E3}
    .fil1 {fill:#184781}
   ]]>
  </style>
 </defs>
 <g id="Warstwa_x0020_1">
  <metadata id="CorelCorpID_0Corel-Layer"/>
  <g id="_814300784">
   <path class="fil0" d="M554 828l741 0c117,0 214,96 214,214l0 503c0,118 -97,214 -214,214l-1081 0c-118,0 -214,-96 -214,-214l0 -503c0,-107 79,-196 182,-212l0 -95 372 0 0 93zm200 266c118,0 214,96 214,214 0,117 -96,213 -214,213 -118,0 -213,-96 -213,-213 0,-118 95,-214 213,-214zm0 -108c178,0 322,144 322,322 0,177 -144,321 -322,321 -177,0 -321,-144 -321,-321 0,-178 144,-322 321,-322z"/>
   <polygon class="fil1" points="1423,779 1418,582 1674,575 1147,0 648,601 904,594 909,776 "/>
  </g>
 </g>
</svg>
